<svg width="421" height="521" viewBox="0 0 421 521" fill="none" xmlns="http://www.w3.org/2000/svg">
<g clip-path="url(#clip0_2_2)">
<path d="M186.5 168.5H235" stroke="#F90D3B" stroke-width="29"/>
<g filter="url(#filter0_d_2_2)">
<path d="M186.5 207.5C186.5 207.5 186.509 161.748 186.509 114.748C186.509 67.7482 153.509 73.7482 153.509 73.7482C129.509 73.7482 122.509 91.7482 122.509 114.748C122.509 137.748 122.509 256.5 122.509 256.5C122.509 256.5 121.28 287.5 159.509 287.5" stroke="#F90D3B" stroke-width="29" stroke-linecap="square"/>
</g>
<g filter="url(#filter1_d_2_2)">
<path d="M235.5 207.5C235.5 207.5 235.504 161.748 235.504 114.748C235.504 67.7482 268.504 73.7482 268.504 73.7482C292.504 73.7482 299.504 91.7482 299.504 114.748C299.504 137.748 299.504 256.5 299.504 256.5C299.504 256.5 300.733 287.5 262.504 287.5" stroke="#F90D3B" stroke-width="29" stroke-linecap="square"/>
</g>
<g filter="url(#filter2_d_2_2)">
<path d="M74.5045 364.5C74.5045 338.296 74.5045 242.818 74.5045 242.818C74.5045 242.818 73.281 207.5 111.339 207.5H186.5" stroke="#F90D3B" stroke-width="29" stroke-linecap="square"/>
</g>
<g filter="url(#filter3_d_2_2)">
<path d="M346.496 361.5C346.496 335.797 346.496 242.143 346.496 242.143C346.496 242.143 347.708 207.5 309.99 207.5H235.5" stroke="#F90D3B" stroke-width="29" stroke-linecap="square"/>
</g>
<g filter="url(#filter4_d_2_2)">
<path d="M402.498 417.5C402.498 400.459 402.498 191.468 402.498 191.468C402.498 191.468 403.114 168.5 383.959 168.5H326.5" stroke="#F90D3B" stroke-width="29" stroke-linecap="square" stroke-linejoin="round"/>
</g>
<g filter="url(#filter5_d_2_2)">
<path d="M18.5022 417.5C18.5022 400.679 18.5022 191.172 18.5022 191.172C18.5022 191.172 17.9053 168.5 36.4705 168.5H93.5" stroke="#F90D3B" stroke-width="29" stroke-linecap="square" stroke-linejoin="round"/>
</g>
<g filter="url(#filter6_d_2_2)">
<path d="M129.509 322.5C129.509 322.5 129.509 367.252 129.509 414.252C129.509 461.252 162.509 455.252 162.509 455.252C186.509 455.252 193.509 437.252 193.509 414.252C193.509 391.252 193.509 272.5 193.509 272.5C193.509 272.5 194.738 241.5 156.509 241.5" stroke="#F90D3B" stroke-width="29" stroke-linecap="square"/>
</g>
<g filter="url(#filter7_d_2_2)">
<path d="M292.504 322.5C292.504 322.5 292.504 367.252 292.504 414.252C292.504 461.252 259.504 455.252 259.504 455.252C235.504 455.252 228.504 437.252 228.504 414.252C228.504 391.252 228.504 272.5 228.504 272.5C228.504 272.5 227.275 241.5 265.504 241.5" stroke="#F90D3B" stroke-width="29" stroke-linecap="square"/>
</g>
<g filter="url(#filter8_d_2_2)">
<path d="M75.4977 130.5C75.4977 127.799 75.4977 108.141 75.4977 108.141C75.4977 108.141 76.1204 104.5 56.7518 104.5H18.5" stroke="#F90D3B" stroke-width="29" stroke-linecap="square"/>
</g>
<g filter="url(#filter9_d_2_2)">
<path d="M345.502 130.5C345.502 127.799 345.502 108.141 345.502 108.141C345.502 108.141 344.88 104.5 364.248 104.5H402.5" stroke="#F90D3B" stroke-width="29" stroke-linecap="square"/>
</g>
<g filter="url(#filter10_d_2_2)">
<path d="M346.502 401.5C346.502 407.11 346.502 447.938 346.502 447.938C346.502 447.938 345.89 455.5 364.919 455.5H402.5" stroke="#F90D3B" stroke-width="29" stroke-linecap="square"/>
</g>
<g filter="url(#filter11_d_2_2)">
<path d="M74.4978 403.5C74.4978 408.903 74.4978 448.218 74.4978 448.218C74.4978 448.218 75.1095 455.5 56.0807 455.5H18.5" stroke="#F90D3B" stroke-width="29" stroke-linecap="square"/>
</g>
<path d="M115.5 310.5H306.5" stroke="#F90D3B" stroke-width="5"/>
<path d="M60.5 377H116" stroke="#F90D3B" stroke-width="5"/>
<path d="M305 374.5H360.5" stroke="#F90D3B" stroke-width="5"/>
<path d="M90.0009 142.65L32.499 142.85" stroke="#F90D3B" stroke-width="5"/>
<path d="M389.002 142.67L331.5 142.5" stroke="#F90D3B" stroke-width="5"/>
</g>
<defs>
<filter id="filter0_d_2_2" x="104.005" y="59" width="101.005" height="251" filterUnits="userSpaceOnUse" color-interpolation-filters="sRGB">
<feFlood flood-opacity="0" result="BackgroundImageFix"/>
<feColorMatrix in="SourceAlpha" type="matrix" values="0 0 0 0 0 0 0 0 0 0 0 0 0 0 0 0 0 0 127 0" result="hardAlpha"/>
<feOffset dy="4"/>
<feGaussianBlur stdDeviation="2"/>
<feComposite in2="hardAlpha" operator="out"/>
<feColorMatrix type="matrix" values="0 0 0 0 0 0 0 0 0 0 0 0 0 0 0 0 0 0 0.25 0"/>
<feBlend mode="normal" in2="BackgroundImageFix" result="effect1_dropShadow_2_2"/>
<feBlend mode="normal" in="SourceGraphic" in2="effect1_dropShadow_2_2" result="shape"/>
</filter>
<filter id="filter1_d_2_2" x="216.999" y="59" width="101.01" height="251" filterUnits="userSpaceOnUse" color-interpolation-filters="sRGB">
<feFlood flood-opacity="0" result="BackgroundImageFix"/>
<feColorMatrix in="SourceAlpha" type="matrix" values="0 0 0 0 0 0 0 0 0 0 0 0 0 0 0 0 0 0 127 0" result="hardAlpha"/>
<feOffset dy="4"/>
<feGaussianBlur stdDeviation="2"/>
<feComposite in2="hardAlpha" operator="out"/>
<feColorMatrix type="matrix" values="0 0 0 0 0 0 0 0 0 0 0 0 0 0 0 0 0 0 0.25 0"/>
<feBlend mode="normal" in2="BackgroundImageFix" result="effect1_dropShadow_2_2"/>
<feBlend mode="normal" in="SourceGraphic" in2="effect1_dropShadow_2_2" result="shape"/>
</filter>
<filter id="filter2_d_2_2" x="56" y="193" width="149" height="194" filterUnits="userSpaceOnUse" color-interpolation-filters="sRGB">
<feFlood flood-opacity="0" result="BackgroundImageFix"/>
<feColorMatrix in="SourceAlpha" type="matrix" values="0 0 0 0 0 0 0 0 0 0 0 0 0 0 0 0 0 0 127 0" result="hardAlpha"/>
<feOffset dy="4"/>
<feGaussianBlur stdDeviation="2"/>
<feComposite in2="hardAlpha" operator="out"/>
<feColorMatrix type="matrix" values="0 0 0 0 0 0 0 0 0 0 0 0 0 0 0 0 0 0 0.25 0"/>
<feBlend mode="normal" in2="BackgroundImageFix" result="effect1_dropShadow_2_2"/>
<feBlend mode="normal" in="SourceGraphic" in2="effect1_dropShadow_2_2" result="shape"/>
</filter>
<filter id="filter3_d_2_2" x="217" y="193" width="148" height="191" filterUnits="userSpaceOnUse" color-interpolation-filters="sRGB">
<feFlood flood-opacity="0" result="BackgroundImageFix"/>
<feColorMatrix in="SourceAlpha" type="matrix" values="0 0 0 0 0 0 0 0 0 0 0 0 0 0 0 0 0 0 127 0" result="hardAlpha"/>
<feOffset dy="4"/>
<feGaussianBlur stdDeviation="2"/>
<feComposite in2="hardAlpha" operator="out"/>
<feColorMatrix type="matrix" values="0 0 0 0 0 0 0 0 0 0 0 0 0 0 0 0 0 0 0.25 0"/>
<feBlend mode="normal" in2="BackgroundImageFix" result="effect1_dropShadow_2_2"/>
<feBlend mode="normal" in="SourceGraphic" in2="effect1_dropShadow_2_2" result="shape"/>
</filter>
<filter id="filter4_d_2_2" x="308" y="154" width="113" height="286" filterUnits="userSpaceOnUse" color-interpolation-filters="sRGB">
<feFlood flood-opacity="0" result="BackgroundImageFix"/>
<feColorMatrix in="SourceAlpha" type="matrix" values="0 0 0 0 0 0 0 0 0 0 0 0 0 0 0 0 0 0 127 0" result="hardAlpha"/>
<feOffset dy="4"/>
<feGaussianBlur stdDeviation="2"/>
<feComposite in2="hardAlpha" operator="out"/>
<feColorMatrix type="matrix" values="0 0 0 0 0 0 0 0 0 0 0 0 0 0 0 0 0 0 0.25 0"/>
<feBlend mode="normal" in2="BackgroundImageFix" result="effect1_dropShadow_2_2"/>
<feBlend mode="normal" in="SourceGraphic" in2="effect1_dropShadow_2_2" result="shape"/>
</filter>
<filter id="filter5_d_2_2" x="0" y="154" width="112" height="286" filterUnits="userSpaceOnUse" color-interpolation-filters="sRGB">
<feFlood flood-opacity="0" result="BackgroundImageFix"/>
<feColorMatrix in="SourceAlpha" type="matrix" values="0 0 0 0 0 0 0 0 0 0 0 0 0 0 0 0 0 0 127 0" result="hardAlpha"/>
<feOffset dy="4"/>
<feGaussianBlur stdDeviation="2"/>
<feComposite in2="hardAlpha" operator="out"/>
<feColorMatrix type="matrix" values="0 0 0 0 0 0 0 0 0 0 0 0 0 0 0 0 0 0 0.25 0"/>
<feBlend mode="normal" in2="BackgroundImageFix" result="effect1_dropShadow_2_2"/>
<feBlend mode="normal" in="SourceGraphic" in2="effect1_dropShadow_2_2" result="shape"/>
</filter>
<filter id="filter6_d_2_2" x="111.009" y="227" width="101.004" height="251" filterUnits="userSpaceOnUse" color-interpolation-filters="sRGB">
<feFlood flood-opacity="0" result="BackgroundImageFix"/>
<feColorMatrix in="SourceAlpha" type="matrix" values="0 0 0 0 0 0 0 0 0 0 0 0 0 0 0 0 0 0 127 0" result="hardAlpha"/>
<feOffset dy="4"/>
<feGaussianBlur stdDeviation="2"/>
<feComposite in2="hardAlpha" operator="out"/>
<feColorMatrix type="matrix" values="0 0 0 0 0 0 0 0 0 0 0 0 0 0 0 0 0 0 0.25 0"/>
<feBlend mode="normal" in2="BackgroundImageFix" result="effect1_dropShadow_2_2"/>
<feBlend mode="normal" in="SourceGraphic" in2="effect1_dropShadow_2_2" result="shape"/>
</filter>
<filter id="filter7_d_2_2" x="210" y="227" width="101.005" height="251" filterUnits="userSpaceOnUse" color-interpolation-filters="sRGB">
<feFlood flood-opacity="0" result="BackgroundImageFix"/>
<feColorMatrix in="SourceAlpha" type="matrix" values="0 0 0 0 0 0 0 0 0 0 0 0 0 0 0 0 0 0 127 0" result="hardAlpha"/>
<feOffset dy="4"/>
<feGaussianBlur stdDeviation="2"/>
<feComposite in2="hardAlpha" operator="out"/>
<feColorMatrix type="matrix" values="0 0 0 0 0 0 0 0 0 0 0 0 0 0 0 0 0 0 0.25 0"/>
<feBlend mode="normal" in2="BackgroundImageFix" result="effect1_dropShadow_2_2"/>
<feBlend mode="normal" in="SourceGraphic" in2="effect1_dropShadow_2_2" result="shape"/>
</filter>
<filter id="filter8_d_2_2" x="0" y="90" width="94" height="63" filterUnits="userSpaceOnUse" color-interpolation-filters="sRGB">
<feFlood flood-opacity="0" result="BackgroundImageFix"/>
<feColorMatrix in="SourceAlpha" type="matrix" values="0 0 0 0 0 0 0 0 0 0 0 0 0 0 0 0 0 0 127 0" result="hardAlpha"/>
<feOffset dy="4"/>
<feGaussianBlur stdDeviation="2"/>
<feComposite in2="hardAlpha" operator="out"/>
<feColorMatrix type="matrix" values="0 0 0 0 0 0 0 0 0 0 0 0 0 0 0 0 0 0 0.25 0"/>
<feBlend mode="normal" in2="BackgroundImageFix" result="effect1_dropShadow_2_2"/>
<feBlend mode="normal" in="SourceGraphic" in2="effect1_dropShadow_2_2" result="shape"/>
</filter>
<filter id="filter9_d_2_2" x="327" y="90" width="94.0002" height="63" filterUnits="userSpaceOnUse" color-interpolation-filters="sRGB">
<feFlood flood-opacity="0" result="BackgroundImageFix"/>
<feColorMatrix in="SourceAlpha" type="matrix" values="0 0 0 0 0 0 0 0 0 0 0 0 0 0 0 0 0 0 127 0" result="hardAlpha"/>
<feOffset dy="4"/>
<feGaussianBlur stdDeviation="2"/>
<feComposite in2="hardAlpha" operator="out"/>
<feColorMatrix type="matrix" values="0 0 0 0 0 0 0 0 0 0 0 0 0 0 0 0 0 0 0.25 0"/>
<feBlend mode="normal" in2="BackgroundImageFix" result="effect1_dropShadow_2_2"/>
<feBlend mode="normal" in="SourceGraphic" in2="effect1_dropShadow_2_2" result="shape"/>
</filter>
<filter id="filter10_d_2_2" x="328" y="387" width="93.0002" height="91" filterUnits="userSpaceOnUse" color-interpolation-filters="sRGB">
<feFlood flood-opacity="0" result="BackgroundImageFix"/>
<feColorMatrix in="SourceAlpha" type="matrix" values="0 0 0 0 0 0 0 0 0 0 0 0 0 0 0 0 0 0 127 0" result="hardAlpha"/>
<feOffset dy="4"/>
<feGaussianBlur stdDeviation="2"/>
<feComposite in2="hardAlpha" operator="out"/>
<feColorMatrix type="matrix" values="0 0 0 0 0 0 0 0 0 0 0 0 0 0 0 0 0 0 0.25 0"/>
<feBlend mode="normal" in2="BackgroundImageFix" result="effect1_dropShadow_2_2"/>
<feBlend mode="normal" in="SourceGraphic" in2="effect1_dropShadow_2_2" result="shape"/>
</filter>
<filter id="filter11_d_2_2" x="0" y="389" width="93" height="89" filterUnits="userSpaceOnUse" color-interpolation-filters="sRGB">
<feFlood flood-opacity="0" result="BackgroundImageFix"/>
<feColorMatrix in="SourceAlpha" type="matrix" values="0 0 0 0 0 0 0 0 0 0 0 0 0 0 0 0 0 0 127 0" result="hardAlpha"/>
<feOffset dy="4"/>
<feGaussianBlur stdDeviation="2"/>
<feComposite in2="hardAlpha" operator="out"/>
<feColorMatrix type="matrix" values="0 0 0 0 0 0 0 0 0 0 0 0 0 0 0 0 0 0 0.25 0"/>
<feBlend mode="normal" in2="BackgroundImageFix" result="effect1_dropShadow_2_2"/>
<feBlend mode="normal" in="SourceGraphic" in2="effect1_dropShadow_2_2" result="shape"/>
</filter>
<clipPath id="clip0_2_2">
<rect width="421" height="521" fill="white"/>
</clipPath>
</defs>
</svg>